<?xml version="1.0" encoding="UTF-8"?>
<svg width="14px" height="14px" viewBox="0 0 14 14" version="1.1" xmlns="http://www.w3.org/2000/svg" xmlns:xlink="http://www.w3.org/1999/xlink">
    <title>邮件</title>
    <g id="一期" stroke="none" stroke-width="1" fill="none" fill-rule="evenodd">
        <g id="编组-20备份" transform="translate(-7.000000, -7.000000)" fill-rule="nonzero">
            <g id="mail" transform="translate(7.000000, 7.000000)">
                <rect id="邮件" fill="#333333" opacity="0" x="0" y="0" width="14" height="14"></rect>
                <path d="M12.6875,2.1875 L1.3125,2.1875 C1.07050781,2.1875 0.875,2.38300781 0.875,2.625 L0.875,11.375 C0.875,11.6169922 1.07050781,11.8125 1.3125,11.8125 L12.6875,11.8125 C12.9294922,11.8125 13.125,11.6169922 13.125,11.375 L13.125,2.625 C13.125,2.38300781 12.9294922,2.1875 12.6875,2.1875 Z M12.140625,3.70234375 L12.140625,10.828125 L1.859375,10.828125 L1.859375,3.70234375 L1.48203125,3.40839844 L2.01933594,2.71796875 L2.60449219,3.17324219 L11.396875,3.17324219 L11.9820313,2.71796875 L12.5193359,3.40839844 L12.140625,3.70234375 L12.140625,3.70234375 Z M11.396875,3.171875 L7,6.58984375 L2.603125,3.171875 L2.01796875,2.71660156 L1.48066406,3.40703125 L1.85800781,3.70097656 L6.52832031,7.33222656 C6.80449219,7.546875 7.19140625,7.546875 7.46757813,7.33222656 L12.140625,3.70234375 L12.5179688,3.40839844 L11.9806641,2.71796875 L11.396875,3.171875 Z" id="形状" fill="#000000"></path>
            </g>
        </g>
    </g>
</svg>