<?xml version="1.0" encoding="UTF-8"?>
<svg width="14px" height="14px" viewBox="0 0 14 14" version="1.1" xmlns="http://www.w3.org/2000/svg" xmlns:xlink="http://www.w3.org/1999/xlink">
    <title>短信</title>
    <g id="一期" stroke="none" stroke-width="1" fill="none" fill-rule="evenodd">
        <g id="消息_message-one-(1)" fill-rule="nonzero">
            <rect id="矩形" fill-opacity="0.01" fill="#FFFFFF" x="0" y="0" width="14" height="14"></rect>
            <path d="M12.8333333,1.25 C13.1094757,1.25 13.3333333,1.47385763 13.3333333,1.75 L13.3333333,1.75 L13.3333333,10.5 C13.3333333,10.7761424 13.1094757,11 12.8333333,11 L12.8333333,11 L8.664,11 L7.35355339,12.3118867 C7.17998704,12.4854531 6.91056264,12.5047382 6.7156945,12.3697422 L6.7156945,12.3697422 L6.64644661,12.3118867 L5.335,11 L1.16666667,11 C0.921206778,11 0.717058296,10.8231248 0.674722336,10.5898756 L0.674722336,10.5898756 L0.666666667,10.5 L0.666666667,1.75 C0.666666667,1.47385763 0.890524292,1.25 1.16666667,1.25 L1.16666667,1.25 Z M12.333,2.25 L1.666,2.25 L1.666,10 L5.54166667,10 C5.64775326,10 5.75036383,10.0337142 5.83517391,10.0952092 L5.83517391,10.0952092 L5.89522006,10.1464466 L7,11.251 L8.10477994,10.1464466 C8.17979449,10.0714321 8.27619066,10.022715 8.37964396,10.0062287 L8.37964396,10.0062287 L8.45833333,10 L12.333,10 L12.333,2.25 Z M7.29239583,5.54166667 C7.61456194,5.54166667 7.87572917,5.8028339 7.87572917,6.125 C7.87572917,6.41494949 7.66418371,6.6554899 7.38701553,6.70069848 L7.29239583,6.70833333 L6.70833333,6.70833333 C6.38616723,6.70833333 6.125,6.4471661 6.125,6.125 C6.125,5.83505051 6.33654546,5.5945101 6.61371364,5.54930152 L6.70833333,5.54166667 L7.29239583,5.54166667 Z M10.2083333,5.54166667 C10.5304994,5.54166667 10.7916667,5.8028339 10.7916667,6.125 C10.7916667,6.41494949 10.5801212,6.6554899 10.302953,6.70069848 L10.2083333,6.70833333 L9.62532083,6.70833333 C9.30315473,6.70833333 9.0419875,6.4471661 9.0419875,6.125 C9.0419875,5.83505051 9.25353296,5.5945101 9.53070114,5.54930152 L9.62532083,5.54166667 L10.2083333,5.54166667 Z M4.37497083,5.54166667 C4.69713694,5.54166667 4.95830417,5.8028339 4.95830417,6.125 C4.95830417,6.41494949 4.74675871,6.6554899 4.46959053,6.70069848 L4.37497083,6.70833333 L3.79195833,6.70833333 C3.46979223,6.70833333 3.208625,6.4471661 3.208625,6.125 C3.208625,5.83505051 3.42017046,5.5945101 3.69733864,5.54930152 L3.79195833,5.54166667 L4.37497083,5.54166667 Z" id="形状结合" fill="#000000"></path>
        </g>
    </g>
</svg>